<svg xmlns="http://www.w3.org/2000/svg" xmlns:xlink="http://www.w3.org/1999/xlink" viewBox="0 0 124.37 23"><path d="M 5.925 23 L 0 23 L 0 0 L 5.925 0 L 5.925 2.445 L 2.763 2.445 L 2.763 20.555 L 5.925 20.555 Z" fill="rgba(255,255,255,0.7)"></path><path d="M 14.896 23 L 8.971 23 L 8.971 0 L 14.896 0 L 14.896 2.445 L 11.734 2.445 L 11.734 20.555 L 14.896 20.555 Z M 27.353 11.4 L 27.353 16.639 L 29.195 16.639 L 29.195 19.084 L 24.913 19.084 L 24.714 17.437 L 24.415 17.437 C 23.867 18.634 22.797 19.333 21.054 19.333 L 20.955 19.333 C 18.589 19.333 17.046 17.911 17.046 15.816 L 17.046 15.691 C 17.046 13.62 18.49 12.498 21.403 12.173 L 24.714 11.774 L 24.714 11.425 C 24.714 9.479 23.892 8.806 22.598 8.806 L 22.498 8.806 C 21.328 8.806 20.382 9.255 20.258 10.951 L 17.469 10.951 C 17.768 7.758 19.859 6.336 22.598 6.336 L 22.697 6.336 C 25.635 6.336 27.353 8.008 27.353 11.4 Z M 21.378 16.988 L 21.477 16.988 C 23.917 16.988 24.714 15.641 24.714 13.82 L 24.714 13.77 L 21.826 14.119 C 20.158 14.319 19.66 14.843 19.66 15.616 L 19.66 15.716 C 19.66 16.514 20.282 16.988 21.378 16.988 Z M 34.458 19.084 L 31.72 19.084 L 31.72 1.123 L 34.458 1.123 Z M 40.876 19.084 L 38.138 19.084 L 38.138 1.123 L 40.876 1.123 Z M 49.386 19.333 L 49.237 19.333 C 46.15 19.333 44.058 17.437 44.058 13.645 L 44.058 12.049 C 44.058 8.257 46.125 6.336 49.237 6.336 L 49.386 6.336 C 52.473 6.336 54.564 8.257 54.564 12.049 L 54.564 13.645 C 54.564 17.437 52.473 19.333 49.386 19.333 Z M 49.237 16.888 L 49.386 16.888 C 51.129 16.888 51.876 16.065 51.876 13.645 L 51.876 12.049 C 51.876 9.604 51.129 8.806 49.386 8.806 L 49.237 8.806 C 47.469 8.806 46.747 9.604 46.747 12.049 L 46.747 13.645 C 46.747 16.065 47.469 16.888 49.237 16.888 Z M 62.463 19.333 L 62.413 19.333 C 59.376 19.333 57.26 17.437 57.26 13.645 L 57.26 12.049 C 57.26 8.257 59.376 6.336 62.413 6.336 L 62.463 6.336 C 65.251 6.336 67.342 8.008 67.467 11.126 L 64.778 11.126 C 64.728 9.629 63.907 8.806 62.438 8.806 L 62.388 8.806 C 60.72 8.806 59.948 9.729 59.948 12.049 L 59.948 13.645 C 59.948 15.94 60.72 16.888 62.388 16.888 L 62.438 16.888 C 63.907 16.888 64.728 16.04 64.778 14.568 L 67.467 14.568 C 67.342 17.686 65.251 19.333 62.463 19.333 Z M 75.597 0 L 75.597 23 L 69.672 23 L 69.672 20.555 L 72.859 20.555 L 72.859 2.445 L 69.672 2.445 L 69.672 0 Z" fill="rgb(218, 208, 133)"></path><path d="M 85.668 4.39 L 82.432 4.39 L 82.432 1.247 L 85.668 1.247 L 85.668 4.391 Z M 85.419 19.084 L 82.681 19.084 L 82.681 6.586 L 85.419 6.586 Z M 91.838 19.084 L 89.099 19.084 L 89.099 6.586 L 91.838 6.586 L 91.838 8.407 L 92.111 8.407 C 92.709 7.134 93.78 6.336 95.323 6.336 L 95.423 6.336 C 97.738 6.336 99.256 8.057 99.256 11.126 L 99.256 19.084 L 96.493 19.084 L 96.493 11.325 C 96.493 9.629 95.746 8.906 94.551 8.906 L 94.452 8.906 C 92.734 8.906 91.838 10.078 91.838 11.924 Z M 105.896 4.39 L 102.659 4.39 L 102.659 1.247 L 105.896 1.247 L 105.896 4.391 Z M 105.647 19.084 L 102.908 19.084 L 102.908 6.586 L 105.647 6.586 Z M 113.907 16.639 L 116.472 16.639 L 116.472 19.084 L 113.907 19.084 C 111.667 19.084 110.372 17.612 110.372 15.541 L 110.372 9.055 L 108.107 9.055 L 108.107 6.586 L 110.372 6.586 L 110.372 3.767 L 113.111 3.543 L 113.111 6.586 L 116.397 6.586 L 116.397 9.056 L 113.111 9.056 L 113.111 15.841 C 113.111 16.439 113.26 16.639 113.907 16.639 Z M 124.37 0 L 124.37 23 L 118.445 23 L 118.445 20.555 L 121.632 20.555 L 121.632 2.445 L 118.445 2.445 L 118.445 0 Z" fill="rgba(255,255,255,0.7)"></path></svg>